# xmcd
# 
# Track frame offsets:
#     150
#     16530
#     32852
#     48894
#     63960
#     82511
#     95741
#     115515
#     134540
#     148124
# 
# Disc length: 2203
# 
# Revision: 1
# Processed by: cddbd v1.5.2PL0 Copyright (c) Steve Scherf et al.
# Submitted via: BonkEnc v1.0.15
# 
DISCID=7508990a
DTITLE=OLIVER DRAGOJEVIĆ - Svoju zvizdu slidin
DYEAR=1985
DGENRE=Zabavni
TTITLE0=Svoju zvizdu slidin
TTITLE1=Daj mi griz
TTITLE2=Najlipše te jubi oni što te gubi
TTITLE3=Imala je lijepu rupicu na bradi
TTITLE4=Dodir kristala
TTITLE5=Adio kumpanji
TTITLE6=Sunce mog' života
TTITLE7=Karatilo
TTITLE8=Ja te ljubim
TTITLE9=U tebi raste lijepo dijete
EXTD=
EXTT0=
EXTT1=
EXTT2=
EXTT3=
EXTT4=
EXTT5=
EXTT6=
EXTT7=
EXTT8=
EXTT9=
PLAYORDER=
